<svg xmlns="http://www.w3.org/2000/svg" xmlns:xlink="http://www.w3.org/1999/xlink" width="500" zoomAndPan="magnify" viewBox="0 0 375 374.999991" height="500" preserveAspectRatio="xMidYMid meet" version="1.0"><defs><clipPath id="a11b33d0bd"><path d="M 316 265 L 320.4375 265 L 320.4375 270 L 316 270 Z M 316 265 " clip-rule="nonzero"/></clipPath></defs><rect x="-37.5" width="450" fill="#ffffff" y="-37.499999" height="449.999989" fill-opacity="1"/><rect x="-37.5" width="450" fill="#ffffff" y="-37.499999" height="449.999989" fill-opacity="1"/><path fill="#bcdcbc" d="M 113.746094 312.652344 C 110.691406 309.511719 105.351562 304.34375 103.15625 302.953125 C 103.035156 302.894531 102.855469 302.84375 102.722656 302.84375 C 102.761719 304.332031 116.640625 317.773438 118.195312 317.828125 C 118.15625 317.285156 115.753906 314.714844 113.746094 312.652344 " fill-opacity="1" fill-rule="nonzero"/><path fill="#bcdcbc" d="M 131.773438 325.671875 C 128.566406 322.933594 122.75 318.453125 119.878906 317.339844 C 119.667969 317.285156 119.347656 317.199219 119.238281 317.296875 C 118.683594 317.796875 122.328125 321.234375 126.085938 324.128906 C 130.894531 327.832031 135.28125 330.53125 136.070312 330.265625 C 136.332031 329.683594 133.492188 327.140625 131.773438 325.671875 " fill-opacity="1" fill-rule="nonzero"/><path fill="#bcdcbc" d="M 71.777344 255.609375 C 71.707031 255.539062 71.582031 255.46875 71.480469 255.464844 C 71.457031 257.410156 80.726562 275.144531 81.816406 275.226562 C 81.828125 274.441406 79.976562 270.558594 78.871094 268.316406 C 76.941406 264.394531 73.308594 257.480469 71.777344 255.609375 " fill-opacity="1" fill-rule="nonzero"/><path fill="#bcdcbc" d="M 83.316406 274.636719 C 83.125 274.546875 82.886719 274.433594 82.765625 274.554688 C 81.5625 275.78125 92.445312 291.871094 95.023438 292.675781 C 96.023438 292.988281 94.9375 290.316406 92.386719 286.183594 C 90 282.316406 85.609375 276.179688 83.316406 274.636719 " fill-opacity="1" fill-rule="nonzero"/><path fill="#bcdcbc" d="M 108.664062 302.128906 C 106.027344 298.609375 100.945312 293.09375 97.898438 291.84375 C 97.644531 291.777344 97.296875 291.691406 97.101562 291.828125 C 95.003906 293.28125 107.273438 307.636719 111.066406 308.171875 C 112.464844 308.367188 111.476562 305.882812 108.664062 302.128906 " fill-opacity="1" fill-rule="nonzero"/><path fill="#bcdcbc" d="M 63.601562 234.929688 C 63.71875 235.3125 63.90625 235.875 64.140625 236.558594 C 63.957031 236.007812 63.765625 235.445312 63.597656 234.917969 L 63.601562 234.929688 " fill-opacity="1" fill-rule="nonzero"/><path fill="#bcdcbc" d="M 77.105469 262.160156 C 78.5625 262.984375 78.304688 259.707031 76.511719 254.535156 C 74.960938 250.070312 71.734375 243.039062 69.421875 241.394531 C 69.285156 241.335938 69.089844 241.242188 68.941406 241.269531 C 66.53125 241.730469 73.777344 260.277344 77.105469 262.160156 " fill-opacity="1" fill-rule="nonzero"/><path fill="#bcdcbc" d="M 90.652344 280.367188 C 92.644531 281.023438 92.503906 277.886719 90.320312 273.074219 C 88.433594 268.90625 84.339844 262.421875 81.15625 261.046875 C 80.878906 260.984375 80.507812 260.898438 80.226562 261.070312 C 77.4375 262.820312 86.109375 278.867188 90.652344 280.367188 " fill-opacity="1" fill-rule="nonzero"/><path fill="#bcdcbc" d="M 106.566406 296.566406 C 109.472656 297.523438 109.695312 294.46875 107.066406 289.757812 C 104.585938 285.3125 99.683594 279.910156 96.097656 278.941406 C 95.75 278.902344 95.273438 278.847656 94.910156 279.042969 C 91.480469 280.851562 100.632812 294.609375 106.566406 296.566406 " fill-opacity="1" fill-rule="nonzero"/><path fill="#bcdcbc" d="M 61.257812 220.308594 C 61.183594 220.238281 61.070312 220.160156 60.972656 220.128906 C 59.515625 221.035156 65.226562 241.835938 67.078125 242.386719 C 67.8125 241.929688 66.464844 236.074219 66.03125 234.292969 C 64.976562 229.921875 62.746094 222.257812 61.257812 220.308594 " fill-opacity="1" fill-rule="nonzero"/><path fill="#bcdcbc" d="M 75.859375 247.515625 C 78.207031 248.816406 79.0625 245.070312 77.761719 239.167969 C 76.730469 234.46875 73.863281 227.21875 70.722656 225.792969 C 70.515625 225.75 70.21875 225.6875 70.011719 225.734375 C 65.972656 226.621094 70.835938 244.738281 75.859375 247.515625 " fill-opacity="1" fill-rule="nonzero"/><path fill="#bcdcbc" d="M 89.078125 266.167969 C 92.429688 267.871094 93.75 264.191406 91.902344 258.289062 C 90.5 253.816406 86.695312 246.996094 82.617188 245.839844 C 82.34375 245.8125 81.96875 245.777344 81.703125 245.839844 C 76.917969 246.972656 82.710938 262.933594 89.078125 266.167969 " fill-opacity="1" fill-rule="nonzero"/><path fill="#bcdcbc" d="M 105.078125 282.996094 C 109.492188 285.027344 111.339844 281.5 108.957031 275.59375 C 107.269531 271.410156 102.734375 265.152344 97.933594 264.328125 C 97.496094 264.316406 96.898438 264.300781 96.363281 264.550781 C 91.886719 266.671875 98.074219 279.773438 105.078125 282.996094 " fill-opacity="1" fill-rule="nonzero"/><path fill="#bcdcbc" d="M 65.566406 227.039062 C 67.226562 228.519531 67.984375 224.828125 67.253906 218.804688 C 66.683594 214.101562 64.890625 206.742188 62.691406 205.101562 C 62.542969 205.039062 62.332031 204.953125 62.175781 204.984375 C 59.183594 205.519531 62.003906 223.863281 65.566406 227.039062 " fill-opacity="1" fill-rule="nonzero"/><path fill="#bcdcbc" d="M 82.671875 222.5625 C 82.15625 217.832031 79.652344 210.644531 75.707031 209.484375 C 75.425781 209.457031 75.039062 209.429688 74.765625 209.492188 C 69.890625 210.632812 71.9375 226.671875 77.507812 230.945312 C 80.917969 233.558594 83.425781 229.488281 82.671875 222.5625 " fill-opacity="1" fill-rule="nonzero"/><path fill="#bcdcbc" d="M 96.859375 241.75 C 95.917969 237.023438 92.4375 229.976562 87.660156 229.109375 C 87.316406 229.101562 86.851562 229.097656 86.519531 229.183594 C 80.972656 230.609375 83.898438 245.375 90.636719 249.972656 C 95.230469 253.105469 98.316406 249.035156 96.859375 241.75 " fill-opacity="1" fill-rule="nonzero"/><path fill="#bcdcbc" d="M 113.878906 259.585938 C 112.617188 255.078125 108.398438 248.476562 102.964844 247.917969 C 102.578125 247.929688 102.054688 247.957031 101.683594 248.0625 C 95.601562 249.800781 99.589844 263.796875 107.300781 267.769531 C 112.53125 270.464844 115.789062 266.410156 113.878906 259.585938 " fill-opacity="1" fill-rule="nonzero"/><path fill="#bcdcbc" d="M 67.875 211.042969 C 70.230469 213.070312 72.214844 209.175781 72.117188 202.707031 C 72.050781 198 70.625 190.75 67.671875 189.363281 C 67.457031 189.320312 67.15625 189.265625 66.941406 189.3125 C 62.730469 190.1875 63.464844 207.246094 67.875 211.042969 " fill-opacity="1" fill-rule="nonzero"/><path fill="#bcdcbc" d="M 90.816406 205.238281 C 90.722656 200.484375 88.550781 193.410156 84.007812 192.558594 C 83.835938 192.554688 83.605469 192.535156 83.433594 192.550781 C 77.402344 192.980469 76.726562 207.453125 82.46875 213.195312 C 86.605469 217.332031 90.972656 213.164062 90.816406 205.238281 " fill-opacity="1" fill-rule="nonzero"/><path fill="#bcdcbc" d="M 104.6875 223.859375 C 104.175781 219.089844 101.078125 212.113281 95.78125 211.542969 C 95.585938 211.550781 95.320312 211.546875 95.125 211.570312 C 88.300781 212.382812 88.847656 226.96875 95.902344 232.378906 C 100.9375 236.234375 105.53125 231.777344 104.6875 223.859375 " fill-opacity="1" fill-rule="nonzero"/><path fill="#bcdcbc" d="M 121.484375 241.785156 C 120.601562 237.027344 116.695312 230.191406 110.757812 229.90625 C 110.539062 229.925781 110.246094 229.9375 110.027344 229.96875 C 103.019531 231.078125 104.039062 244.621094 111.542969 250.097656 C 117.617188 254.527344 123.003906 250.023438 121.484375 241.785156 " fill-opacity="1" fill-rule="nonzero"/><path fill="#bcdcbc" d="M 73.109375 193.996094 C 76.105469 197.460938 79.730469 193.453125 80.292969 186.058594 C 80.644531 181.375 79.507812 174.28125 75.867188 173.171875 C 75.726562 173.160156 75.542969 173.128906 75.402344 173.132812 C 70.34375 173.21875 68.628906 188.820312 73.109375 193.996094 " fill-opacity="1" fill-rule="nonzero"/><path fill="#bcdcbc" d="M 90.71875 195.570312 C 94.980469 200.394531 100.722656 196.039062 101.132812 187.671875 C 101.363281 182.9375 99.480469 176.023438 94.558594 175.460938 C 87.1875 175.777344 85.648438 189.828125 90.71875 195.570312 " fill-opacity="1" fill-rule="nonzero"/><path fill="#bcdcbc" d="M 114.703125 205.652344 C 114.523438 200.871094 111.722656 194.003906 106.054688 193.707031 C 97.769531 194.429688 97.425781 208.660156 103.71875 214.164062 C 108.957031 218.75 115.015625 214.058594 114.703125 205.652344 " fill-opacity="1" fill-rule="nonzero"/><path fill="#bcdcbc" d="M 118.9375 231.496094 C 125.210938 236.894531 132.1875 232.09375 131.171875 223.070312 C 130.632812 218.269531 127.035156 211.496094 120.722656 211.476562 C 112.132812 212.535156 112.1875 225.683594 118.9375 231.496094 " fill-opacity="1" fill-rule="nonzero"/><path fill="#bcdcbc" d="M 90.875 169.277344 C 91.550781 164.636719 90.660156 157.738281 86.5625 156.933594 C 80.035156 156.847656 77.363281 171.902344 81.566406 177.132812 C 84.859375 181.226562 89.730469 177.117188 90.875 169.277344 " fill-opacity="1" fill-rule="nonzero"/><path fill="#bcdcbc" d="M 144.085938 311.457031 C 149.230469 312.757812 151.269531 309.515625 148.453125 304.511719 C 146.457031 300.972656 141.109375 295.902344 135.460938 295.703125 C 134.691406 295.761719 133.898438 295.820312 133.125 296.359375 C 128.757812 299.398438 136.03125 309.417969 144.085938 311.457031 " fill-opacity="1" fill-rule="nonzero"/><path fill="#bcdcbc" d="M 153.480469 289.878906 C 151.882812 285.972656 146.800781 280.484375 140.515625 280.523438 C 139.933594 280.59375 139.132812 280.683594 138.386719 281.042969 C 132.648438 283.753906 137.167969 294.183594 145.496094 297.453125 C 151.910156 299.972656 156.015625 296.078125 153.480469 289.878906 " fill-opacity="1" fill-rule="nonzero"/><path fill="#bcdcbc" d="M 161.078125 273.328125 C 159.816406 269.070312 154.976562 263.203125 148.148438 263.484375 C 147.898438 263.523438 147.5625 263.558594 147.3125 263.613281 C 139.800781 265.199219 141.179688 276.347656 149.488281 281.152344 C 156.851562 285.410156 163.347656 281.023438 161.078125 273.328125 " fill-opacity="1" fill-rule="nonzero"/><path fill="#bcdcbc" d="M 157.914062 244.671875 C 157.648438 244.71875 157.289062 244.769531 157.023438 244.832031 C 148.90625 246.792969 149.367188 258.882812 157.75 263.855469 C 165.121094 268.234375 172.554688 263.15625 170.789062 254.953125 C 169.800781 250.375 165.15625 244.152344 157.914062 244.671875 " fill-opacity="1" fill-rule="nonzero"/><path fill="#bcdcbc" d="M 145.324219 323.25 C 148.847656 323.710938 149.285156 321.046875 146.3125 317.1875 C 143.882812 314.027344 138.246094 309.386719 133.320312 308.957031 C 132.664062 308.972656 131.984375 308.992188 131.417969 309.425781 C 127.9375 312.117188 138.203125 322.324219 145.324219 323.25 " fill-opacity="1" fill-rule="nonzero"/><path fill="#bcdcbc" d="M 149.175781 332.921875 C 151.140625 332.875 150.378906 330.851562 147.285156 327.890625 C 144.582031 325.304688 138.675781 320.953125 134.328125 320.292969 C 133.785156 320.269531 133.226562 320.242188 132.878906 320.578125 C 130.589844 322.773438 144.140625 333.042969 149.175781 332.921875 " fill-opacity="1" fill-rule="nonzero"/><path fill="#bcdcbc" d="M 125.402344 283.769531 C 132.035156 287.03125 136.359375 282.730469 133.816406 275.40625 C 132.222656 270.824219 127.070312 264.246094 120.605469 263.980469 C 120.148438 264.019531 119.53125 264.074219 119.089844 264.207031 C 112.277344 266.246094 116.527344 279.410156 125.402344 283.769531 " fill-opacity="1" fill-rule="nonzero"/><path fill="#bcdcbc" d="M 124.207031 298.679688 C 129.429688 300.460938 131.59375 296.722656 128.746094 290.839844 C 126.710938 286.632812 121.246094 280.464844 115.472656 279.925781 C 114.945312 279.941406 114.222656 279.964844 113.582031 280.261719 C 108.097656 282.820312 115.542969 295.730469 124.207031 298.679688 " fill-opacity="1" fill-rule="nonzero"/><path fill="#bcdcbc" d="M 65.996094 182.691406 C 66.417969 177.660156 66.035156 169.816406 63.851562 168.136719 C 63.6875 168.074219 63.449219 168 63.277344 168.027344 C 59.582031 168.667969 58.527344 188.300781 62.011719 191.632812 C 63.65625 193.210938 65.445312 189.199219 65.996094 182.691406 " fill-opacity="1" fill-rule="nonzero"/><path fill="#bcdcbc" d="M 58.660156 183.191406 C 58.566406 183.117188 58.425781 183 58.308594 183.011719 C 56.085938 183.257812 57.089844 204.617188 59.4375 207.074219 C 60.433594 208.109375 61.085938 204.304688 60.964844 198.21875 C 60.859375 193.152344 60.078125 185.136719 58.660156 183.191406 " fill-opacity="1" fill-rule="nonzero"/><path fill="#bcdcbc" d="M 140.699219 258.105469 C 139.582031 253.554688 135.097656 247.152344 128.625 247.15625 C 128.15625 247.214844 127.527344 247.300781 127.078125 247.449219 C 120.25 249.699219 122.308594 261.789062 130.316406 266.46875 C 136.96875 270.359375 142.597656 265.824219 140.699219 258.105469 " fill-opacity="1" fill-rule="nonzero"/><path fill="#bcdcbc" d="M 137.742188 247.941406 C 144.714844 252.902344 151.964844 247.855469 150.457031 239.089844 C 149.632812 234.296875 145.390625 227.664062 138.535156 227.921875 C 138.28125 227.960938 137.941406 227.996094 137.6875 228.050781 C 129.910156 229.753906 129.945312 242.394531 137.742188 247.941406 " fill-opacity="1" fill-rule="nonzero"/><path fill="#bcdcbc" d="M 125.203125 310.769531 C 128.550781 311.472656 128.921875 308.625 126.050781 304.285156 C 123.726562 300.769531 118.386719 295.488281 113.796875 294.75 C 113.1875 294.726562 112.558594 294.703125 112.035156 295.132812 C 108.902344 297.71875 118.75 309.40625 125.203125 310.769531 " fill-opacity="1" fill-rule="nonzero"/><path fill="#bcdcbc" d="M 129.253906 321.464844 C 130.996094 321.535156 130.144531 319.246094 127.179688 315.898438 C 124.382812 312.738281 118.769531 307.871094 115.039062 306.921875 C 114.546875 306.859375 114.082031 306.800781 113.816406 307.136719 C 112.046875 309.371094 124.882812 321.289062 129.253906 321.464844 " fill-opacity="1" fill-rule="nonzero"/><path fill="#bcdcbc" d="M 58.175781 163.023438 C 58.15625 162.980469 58.132812 162.917969 58.113281 162.875 C 58.066406 162.871094 58.007812 162.867188 57.960938 162.863281 C 56.800781 164.816406 55.683594 182.628906 56.585938 184.773438 C 56.632812 184.777344 56.691406 184.78125 56.738281 184.78125 C 57.246094 183.851562 57.667969 179.414062 57.878906 176.851562 C 58.230469 172.542969 58.621094 164.984375 58.175781 163.023438 " fill-opacity="1" fill-rule="nonzero"/><path fill="#bcdcbc" d="M 62.863281 162.097656 C 63.71875 157.566406 64.4375 150.4375 63.347656 148.785156 C 63.257812 148.71875 63.121094 148.625 63.011719 148.640625 C 60.617188 148.90625 57.554688 167.949219 59.558594 170.089844 C 60.414062 171 61.832031 167.5625 62.863281 162.097656 " fill-opacity="1" fill-rule="nonzero"/><path fill="#bcdcbc" d="M 70.953125 147.039062 C 72.226562 142.589844 73.261719 135.695312 71.574219 134.296875 C 71.5 134.273438 71.40625 134.222656 71.332031 134.210938 C 68.039062 133.667969 63.160156 150.738281 65.464844 154.734375 C 66.65625 156.800781 69.171875 153.277344 70.953125 147.039062 " fill-opacity="1" fill-rule="nonzero"/><path fill="#bcdcbc" d="M 74.363281 139.324219 C 75.777344 141.910156 79.28125 138.308594 81.714844 131.765625 C 83.324219 127.429688 84.613281 120.8125 82.425781 119.683594 C 78.332031 118.957031 71.851562 134.742188 74.363281 139.324219 " fill-opacity="1" fill-rule="nonzero"/><path fill="#bcdcbc" d="M 73.777344 166.285156 C 74.59375 161.699219 74.558594 154.667969 71.921875 153.386719 C 71.816406 153.363281 71.675781 153.324219 71.570312 153.316406 C 67.304688 153.089844 64.171875 169.449219 67.582031 174.152344 C 69.554688 176.882812 72.566406 173.058594 73.777344 166.285156 " fill-opacity="1" fill-rule="nonzero"/><path fill="#bcdcbc" d="M 76.371094 157.785156 C 78.632812 161.117188 82.8125 157.207031 84.648438 150.039062 C 85.800781 145.535156 85.992188 138.738281 82.8125 137.734375 C 77.132812 137.28125 73.164062 153.070312 76.371094 157.785156 " fill-opacity="1" fill-rule="nonzero"/><path fill="#bcdcbc" d="M 113.894531 168.628906 C 114.371094 163.960938 112.722656 157.265625 107.558594 156.984375 C 100.304688 157.644531 97.488281 170.585938 101.8125 176.351562 C 105.996094 181.921875 112.996094 177.449219 113.894531 168.628906 " fill-opacity="1" fill-rule="nonzero"/><path fill="#bcdcbc" d="M 127.160156 185.828125 C 127.230469 181.082031 124.667969 174.386719 118.753906 174.359375 C 110.453125 175.410156 108.742188 188.453125 114.371094 194.21875 C 119.621094 199.597656 127.03125 194.734375 127.160156 185.828125 " fill-opacity="1" fill-rule="nonzero"/><path fill="#bcdcbc" d="M 129.949219 211.597656 C 136.105469 216.734375 143.855469 211.523438 143.324219 202.605469 C 143.039062 197.808594 139.683594 191.15625 133.113281 191.390625 C 124.066406 192.8125 123.273438 206.03125 129.949219 211.597656 " fill-opacity="1" fill-rule="nonzero"/><path fill="#bcdcbc" d="M 150.214844 207.964844 C 141.207031 209.625 140.578125 221.984375 147.226562 227.707031 C 154.109375 233.632812 163.03125 228.253906 161.910156 218.851562 C 161.335938 214.03125 157.328125 207.46875 150.214844 207.964844 " fill-opacity="1" fill-rule="nonzero"/><path fill="#bcdcbc" d="M 99.851562 139.457031 C 93.171875 139.785156 89.386719 153.488281 93.054688 158.84375 C 96.285156 163.554688 102.28125 159.3125 103.933594 151.15625 C 104.851562 146.605469 104.195312 139.96875 99.851562 139.457031 " fill-opacity="1" fill-rule="nonzero"/><path fill="#bcdcbc" d="M 87.667969 141.125 C 90.003906 145.003906 95.167969 141.054688 97.535156 133.578125 C 98.925781 129.1875 99.316406 122.675781 95.828125 121.964844 C 89.824219 121.945312 84.710938 136.214844 87.667969 141.125 " fill-opacity="1" fill-rule="nonzero"/><path fill="#bcdcbc" d="M 105.085938 231.527344 L 105.011719 231.652344 L 105.03125 231.664062 Z M 105.085938 231.527344 " fill-opacity="1" fill-rule="nonzero"/><path fill="#bcdcbc" d="M 109.519531 249.621094 L 109.652344 249.742188 L 109.535156 249.621094 C 109.527344 249.621094 109.523438 249.621094 109.519531 249.621094 " fill-opacity="1" fill-rule="nonzero"/><path fill="#bcdcbc" d="M 165.667969 308.820312 C 172.292969 311.421875 176.875 307.847656 174.269531 302.113281 C 172.734375 298.730469 167.8125 294.089844 161.6875 294.363281 C 161.050781 294.457031 160.253906 294.578125 159.496094 294.964844 C 154.382812 297.550781 158.074219 305.84375 165.667969 308.820312 " fill-opacity="1" fill-rule="nonzero"/><path fill="#bcdcbc" d="M 164.679688 322.179688 C 169.714844 323.15625 171.785156 320.136719 169.019531 315.84375 C 167.234375 313.074219 162.277344 308.707031 156.570312 308.773438 C 156.191406 308.796875 155.042969 308.875 154.152344 309.519531 C 150.132812 312.414062 157.019531 320.699219 164.679688 322.179688 " fill-opacity="1" fill-rule="nonzero"/><path fill="#bcdcbc" d="M 139.773438 166.601562 C 140.015625 162.152344 137.785156 155.964844 132.054688 156.132812 C 125.066406 156.867188 121.636719 168.136719 126.574219 174.132812 C 131.28125 179.839844 139.296875 175.265625 139.773438 166.601562 " fill-opacity="1" fill-rule="nonzero"/><path fill="#bcdcbc" d="M 121.074219 139.695312 C 114.171875 140.601562 110.964844 152.300781 114.742188 157.503906 C 118.460938 162.628906 125.433594 158.605469 126.773438 150.5625 C 127.511719 146.121094 126.234375 139.8125 121.074219 139.695312 " fill-opacity="1" fill-rule="nonzero"/><path fill="#bcdcbc" d="M 61.125 148.613281 C 61.90625 148.195312 63.289062 143.894531 64.042969 141.371094 C 64.339844 140.371094 66.941406 131.550781 66.554688 129.40625 C 66.523438 129.34375 66.457031 129.257812 66.390625 129.230469 C 66.355469 129.246094 66.300781 129.261719 66.269531 129.285156 C 64.488281 130.484375 59.773438 148.191406 61.125 148.613281 " fill-opacity="1" fill-rule="nonzero"/><path fill="#bcdcbc" d="M 181.707031 286.140625 C 180.480469 282.671875 176.207031 277.703125 169.464844 278.226562 C 168.957031 278.320312 168.277344 278.445312 167.789062 278.617188 C 161.492188 280.859375 163.332031 289.960938 170.816406 293.601562 C 177.269531 296.734375 184.234375 293.28125 181.707031 286.140625 " fill-opacity="1" fill-rule="nonzero"/><path fill="#bcdcbc" d="M 154.484375 340.082031 C 155.417969 339.929688 153.324219 338.144531 151.050781 336.527344 C 148.472656 334.691406 142.695312 330.996094 139.285156 330.15625 C 138.878906 330.101562 138.523438 330.050781 138.433594 330.28125 C 137.796875 331.894531 151.898438 340.503906 154.484375 340.082031 " fill-opacity="1" fill-rule="nonzero"/><path fill="#bcdcbc" d="M 165.441406 332.882812 C 168.980469 333.128906 169.460938 330.945312 166.582031 327.691406 C 164.695312 325.558594 159.714844 321.480469 154.390625 321.320312 C 153.675781 321.367188 153.003906 321.414062 152.445312 321.835938 C 149.191406 324.265625 158.785156 332.421875 165.441406 332.882812 " fill-opacity="1" fill-rule="nonzero"/><path fill="#bcdcbc" d="M 106.378906 140.734375 C 108.964844 144.542969 115.003906 141.628906 117 133.957031 C 117.730469 131.148438 118.539062 123.773438 113.554688 123.417969 C 107.25 124.011719 103.207031 136.058594 106.378906 140.734375 " fill-opacity="1" fill-rule="nonzero"/><path fill="#bcdcbc" d="M 72.132812 127.425781 C 73.457031 124.164062 75.734375 117.582031 74.851562 116.035156 C 74.808594 116.007812 74.753906 115.953125 74.703125 115.9375 C 72.671875 115.238281 66.230469 131.363281 67.449219 134.097656 C 68.046875 135.433594 70.015625 132.628906 72.132812 127.425781 " fill-opacity="1" fill-rule="nonzero"/><path fill="#bcdcbc" d="M 146.21875 172.582031 C 137.703125 174.152344 136.921875 185.589844 141.644531 190.515625 C 146.714844 195.800781 155.671875 192.082031 155.445312 182.695312 C 155.296875 176.53125 151.15625 171.996094 146.21875 172.582031 " fill-opacity="1" fill-rule="nonzero"/><path fill="#bcdcbc" d="M 181.371094 234.476562 C 180.636719 230.277344 176.929688 224.289062 169.710938 225.003906 C 161.167969 226.351562 161.027344 238.171875 167.644531 243.089844 C 173.976562 247.792969 182.960938 243.59375 181.371094 234.476562 " fill-opacity="1" fill-rule="nonzero"/><path fill="#bcdcbc" d="M 178.441406 276.175781 C 185.417969 280.542969 193.136719 276.027344 191.34375 268.617188 C 190.082031 263.417969 184.472656 259.523438 179.335938 260.28125 C 179.074219 260.335938 178.722656 260.394531 178.460938 260.464844 C 171.386719 262.351562 171.371094 271.75 178.441406 276.175781 " fill-opacity="1" fill-rule="nonzero"/><path fill="#bcdcbc" d="M 95.183594 105.707031 C 90.734375 105.425781 84.660156 118.671875 86.347656 122.554688 C 87.574219 125.367188 91.597656 122.234375 94.328125 116.347656 C 95.996094 112.742188 97.707031 106.667969 95.183594 105.707031 " fill-opacity="1" fill-rule="nonzero"/><path fill="#bcdcbc" d="M 168.832031 341.46875 C 170.566406 341.320312 169.980469 339.710938 167.40625 337.554688 C 163.90625 334.617188 158.265625 331.9375 155.335938 331.8125 C 154.796875 331.824219 154.289062 331.835938 153.960938 332.144531 C 151.761719 334.214844 163.992188 341.882812 168.832031 341.46875 " fill-opacity="1" fill-rule="nonzero"/><path fill="#bcdcbc" d="M 109.65625 107.242188 C 104.664062 107.566406 99.046875 118.488281 101.3125 123.472656 C 103.117188 127.445312 108.574219 123.753906 111.042969 116.886719 C 112.386719 113.152344 112.84375 107.691406 109.65625 107.242188 " fill-opacity="1" fill-rule="nonzero"/><path fill="#bcdcbc" d="M 76.804688 119.585938 C 77.460938 121.332031 80.359375 118.234375 83.007812 112.953125 C 84.777344 109.429688 86.859375 103.714844 85.710938 102.648438 C 85.703125 102.648438 85.695312 102.640625 85.691406 102.636719 C 83.015625 101.601562 75.460938 116.015625 76.804688 119.585938 " fill-opacity="1" fill-rule="nonzero"/><path fill="#bcdcbc" d="M 163.121094 188.714844 C 155.464844 189.917969 153.273438 201.097656 159.621094 206.570312 C 165.84375 211.9375 174.289062 206.863281 173.515625 198.21875 C 173.132812 193.898438 169.652344 188.09375 163.121094 188.714844 " fill-opacity="1" fill-rule="nonzero"/><path fill="#bcdcbc" d="M 194.898438 313.242188 C 193.296875 309.378906 187.617188 306.226562 183.214844 306.761719 C 182.8125 306.832031 182.269531 306.933594 181.882812 307.070312 C 177 308.8125 178.21875 315.394531 185.703125 318.566406 C 192.382812 321.398438 196.816406 317.863281 194.898438 313.242188 " fill-opacity="1" fill-rule="nonzero"/><path fill="#bcdcbc" d="M 189.523438 325.917969 C 187.859375 323.375 182.914062 319.976562 177.953125 320.207031 C 177.0625 320.296875 176.332031 320.546875 175.78125 320.945312 C 172.28125 323.484375 177.640625 329.679688 184.605469 331.140625 C 189.957031 332.257812 191.671875 329.199219 189.523438 325.917969 " fill-opacity="1" fill-rule="nonzero"/><path fill="#bcdcbc" d="M 145.699219 138.046875 C 139.929688 138.804688 135.757812 148.605469 140.339844 154.226562 C 144.574219 159.414062 151.957031 155.339844 152.683594 147.414062 C 153.0625 143.300781 150.847656 137.757812 145.699219 138.046875 " fill-opacity="1" fill-rule="nonzero"/><path fill="#bcdcbc" d="M 140.113281 131.855469 C 141.015625 126.699219 138.554688 122.28125 134.957031 122.578125 C 128.921875 123.589844 125.121094 133.648438 128.886719 138.640625 C 132.484375 143.410156 138.945312 138.539062 140.113281 131.855469 " fill-opacity="1" fill-rule="nonzero"/><path fill="#bcdcbc" d="M 76.871094 108.726562 C 77.621094 107.339844 81.339844 100.34375 81.207031 98.597656 C 81.1875 98.566406 81.171875 98.515625 81.144531 98.492188 C 79.976562 97.632812 72.148438 112.480469 72.769531 114.386719 C 73.011719 115.132812 74.585938 112.964844 76.871094 108.726562 " fill-opacity="1" fill-rule="nonzero"/><path fill="#bcdcbc" d="M 120.554688 122.515625 C 122.832031 126.476562 128.929688 123.460938 130.8125 115.96875 C 131.671875 112.566406 131.539062 107.480469 127.671875 107.40625 C 122.066406 108.160156 118.085938 118.21875 120.554688 122.515625 " fill-opacity="1" fill-rule="nonzero"/><path fill="#bcdcbc" d="M 159.640625 153.609375 C 152.890625 154.667969 150.183594 165.15625 155.378906 170.117188 C 160.417969 174.929688 168.242188 170.148438 168.0625 162.363281 C 167.976562 158.679688 165.617188 153.039062 159.640625 153.609375 " fill-opacity="1" fill-rule="nonzero"/><path fill="#bcdcbc" d="M 202.273438 297.792969 C 200.664062 293.644531 195.660156 290.816406 191.113281 291.488281 C 190.667969 291.578125 190.066406 291.703125 189.636719 291.859375 C 183.9375 293.90625 185.191406 301.324219 191.769531 304.453125 C 198.367188 307.597656 204.550781 303.675781 202.273438 297.792969 " fill-opacity="1" fill-rule="nonzero"/><path fill="#bcdcbc" d="M 186.902344 336.648438 C 184.09375 333.757812 179.070312 331.550781 175.699219 331.734375 C 175.140625 331.796875 174.199219 331.894531 173.671875 332.449219 C 171.421875 334.816406 179.789062 340.746094 185.605469 340.90625 C 188.839844 341 189.382812 339.207031 186.902344 336.648438 " fill-opacity="1" fill-rule="nonzero"/><path fill="#bcdcbc" d="M 109.304688 91.769531 C 105.597656 91.425781 98.707031 102.445312 100.085938 106.503906 C 101.050781 109.351562 105.324219 107.03125 108.535156 100.671875 C 109.960938 97.84375 111.957031 92.351562 109.304688 91.769531 " fill-opacity="1" fill-rule="nonzero"/><path fill="#bcdcbc" d="M 174.183594 347.964844 C 175.003906 347.800781 173.769531 346.707031 170.878906 345.046875 C 170.167969 344.640625 163.816406 341.039062 159.800781 340.46875 C 159.378906 340.441406 158.984375 340.421875 158.847656 340.625 C 157.933594 341.984375 171.550781 348.503906 174.183594 347.964844 " fill-opacity="1" fill-rule="nonzero"/><path fill="#bcdcbc" d="M 212.046875 281.21875 C 211.246094 277.976562 207.65625 273.46875 201.042969 274.335938 C 201.042969 274.335938 201.042969 274.335938 201.039062 274.335938 C 201.039062 274.339844 201.039062 274.339844 201.039062 274.339844 C 201.039062 274.339844 201.035156 274.339844 201.035156 274.339844 C 201.035156 274.339844 201.035156 274.339844 201.03125 274.339844 C 201.03125 274.339844 201.027344 274.339844 201.027344 274.339844 C 201.027344 274.339844 201.027344 274.339844 201.023438 274.339844 C 200.011719 274.574219 197.90625 275.058594 196.476562 276.988281 C 193.070312 281.597656 197.679688 290.421875 206.582031 289.242188 C 206.582031 289.242188 206.582031 289.242188 206.585938 289.242188 C 206.589844 289.242188 206.589844 289.242188 206.589844 289.242188 C 206.589844 289.242188 206.589844 289.242188 206.59375 289.242188 C 206.597656 289.242188 206.597656 289.242188 206.597656 289.238281 C 206.597656 289.238281 206.597656 289.238281 206.601562 289.238281 C 213.425781 287.667969 212.207031 281.875 212.046875 281.21875 " fill-opacity="1" fill-rule="nonzero"/><path fill="#bcdcbc" d="M 202.253906 249.347656 C 201.605469 245.628906 197.921875 240.050781 190.808594 240.914062 C 182.523438 242.851562 182.566406 252.992188 189.035156 257.242188 C 195.660156 261.59375 203.566406 256.875 202.253906 249.347656 " fill-opacity="1" fill-rule="nonzero"/><path fill="#bcdcbc" d="M 182.359375 204.699219 C 174.707031 206.113281 173.09375 217.109375 179.816406 222 C 186.261719 226.6875 194.367188 221.40625 193.15625 213.304688 C 192.453125 208.570312 188.425781 203.945312 182.359375 204.699219 " fill-opacity="1" fill-rule="nonzero"/><path fill="#bcdcbc" d="M 68.699219 121.582031 C 69.816406 118.90625 72.453125 112.5 72.78125 110.90625 C 72.789062 110.867188 72.789062 110.8125 72.789062 110.769531 C 72.761719 110.769531 72.726562 110.769531 72.699219 110.769531 C 71.59375 112.132812 65.417969 126.753906 65.933594 127.65625 C 66.097656 127.425781 66.480469 126.894531 68.699219 121.582031 " fill-opacity="1" fill-rule="nonzero"/><path fill="#bcdcbc" d="M 158.089844 343.199219 C 150.800781 339.417969 148.71875 338.507812 147.644531 338.117188 C 147.644531 338.117188 147.640625 338.117188 147.640625 338.113281 C 147.640625 338.113281 147.640625 338.113281 147.636719 338.113281 C 147.636719 338.113281 147.636719 338.113281 147.632812 338.113281 C 147.632812 338.113281 147.632812 338.113281 147.628906 338.113281 C 147.527344 338.082031 147.386719 338.042969 147.28125 338.027344 C 147.273438 338.050781 147.265625 338.085938 147.257812 338.109375 C 148.773438 339.542969 161.515625 345.703125 163.019531 345.933594 C 162.960938 345.808594 162.917969 345.707031 158.089844 343.199219 " fill-opacity="1" fill-rule="nonzero"/><path fill="#bcdcbc" d="M 88.726562 104.644531 C 89.261719 106.535156 92.234375 104.667969 95.640625 98.957031 C 95.835938 98.628906 100.417969 90.898438 98.4375 89.679688 C 95.035156 89.144531 87.867188 101.601562 88.726562 104.644531 " fill-opacity="1" fill-rule="nonzero"/><path fill="#bcdcbc" d="M 188.234375 348.378906 C 188.234375 348.378906 188.238281 348.378906 188.238281 348.378906 C 188.242188 348.378906 188.242188 348.378906 188.242188 348.378906 C 188.246094 348.378906 188.246094 348.378906 188.246094 348.378906 C 188.363281 348.371094 188.519531 348.367188 188.632812 348.355469 C 190.265625 348.164062 189.820312 346.972656 187.503906 345.316406 C 184.226562 342.972656 179.300781 341.09375 176.527344 341.128906 C 176.035156 341.160156 175.523438 341.195312 175.199219 341.460938 C 173.433594 342.925781 182.417969 348.265625 188.234375 348.378906 " fill-opacity="1" fill-rule="nonzero"/><path fill="#bcdcbc" d="M 124.035156 92.445312 C 123.480469 92.507812 122.640625 92.59375 121.21875 93.746094 C 116.128906 97.878906 113.265625 107.695312 118.074219 108.042969 C 118.074219 108.042969 118.074219 108.042969 118.078125 108.042969 C 118.078125 108.042969 118.082031 108.042969 118.082031 108.042969 C 118.085938 108.042969 118.085938 108.042969 118.085938 108.042969 C 122.066406 107.636719 124.664062 101.738281 124.945312 101.066406 C 126.703125 96.90625 126.757812 92.449219 124.035156 92.445312 " fill-opacity="1" fill-rule="nonzero"/><path fill="#bcdcbc" d="M 92.078125 86.296875 C 90.8125 86.003906 81.296875 98.609375 82.570312 101.195312 C 82.570312 101.195312 82.570312 101.195312 82.574219 101.195312 C 82.574219 101.195312 82.574219 101.195312 82.574219 101.199219 C 82.574219 101.199219 82.578125 101.199219 82.578125 101.199219 C 83.675781 101.835938 87.519531 96.003906 87.957031 95.335938 C 89.328125 93.230469 92.765625 87.511719 92.199219 86.367188 C 92.164062 86.347656 92.117188 86.308594 92.078125 86.296875 " fill-opacity="1" fill-rule="nonzero"/><path fill="#bcdcbc" d="M 176.410156 169.007812 C 168.203125 170.933594 168.042969 181.207031 172.902344 185.320312 C 177.953125 189.589844 186.398438 185.734375 185.839844 177.546875 C 185.460938 172 181.230469 168.171875 176.410156 169.007812 " fill-opacity="1" fill-rule="nonzero"/><path fill="#bcdcbc" d="M 195.484375 184.125 C 188.667969 185.894531 186.699219 194.644531 192.03125 199.46875 C 198.167969 205.03125 206.097656 199.5 205.472656 192.253906 C 205.132812 188.308594 201.46875 183.289062 195.484375 184.125 " fill-opacity="1" fill-rule="nonzero"/><path fill="#bcdcbc" d="M 214.09375 228.347656 C 213.394531 223.179688 208.132812 219.191406 203.265625 220.144531 C 196.265625 221.992188 194.59375 231.117188 200.382812 235.890625 C 207.207031 241.519531 215.097656 235.835938 214.09375 228.347656 " fill-opacity="1" fill-rule="nonzero"/><path fill="#bcdcbc" d="M 223.199219 262.371094 C 222.351562 257.890625 217.183594 254.527344 212.5625 255.445312 C 205.691406 257.238281 204.371094 265.359375 210.285156 269.460938 C 217.039062 274.148438 224.429688 268.890625 223.199219 262.371094 " fill-opacity="1" fill-rule="nonzero"/><path fill="#bcdcbc" d="M 102.644531 90.085938 C 102.980469 92.511719 106.910156 89.335938 109.894531 85.039062 C 112.03125 81.953125 114.210938 77.367188 112.730469 76.773438 C 109.59375 76.664062 102.144531 86.492188 102.644531 90.085938 " fill-opacity="1" fill-rule="nonzero"/><path fill="#bcdcbc" d="M 214.589844 322.507812 C 213.324219 319.390625 208.300781 316.890625 204.449219 317.460938 C 204.089844 317.53125 203.605469 317.632812 203.261719 317.757812 C 199.175781 319.25 199.726562 324.3125 205.636719 326.890625 C 211.683594 329.523438 216.203125 326.480469 214.589844 322.507812 " fill-opacity="1" fill-rule="nonzero"/><path fill="#bcdcbc" d="M 167.484375 347.066406 C 167.375 347.050781 167.230469 347.035156 167.121094 347.035156 C 167.109375 347.0625 167.089844 347.097656 167.078125 347.128906 C 168.371094 348.398438 179.613281 352.328125 182.167969 352.71875 C 182.191406 352.699219 182.226562 352.667969 182.25 352.644531 C 181.824219 352.375 180.328125 351.730469 177.808594 350.730469 C 177.019531 350.414062 170.003906 347.640625 167.484375 347.066406 " fill-opacity="1" fill-rule="nonzero"/><path fill="#bcdcbc" d="M 115.15625 91.082031 C 116 93.714844 120.140625 90.964844 123.066406 85.832031 C 124.65625 83.042969 126.332031 78.464844 124.0625 78.070312 C 120.351562 78.335938 114.027344 87.574219 115.15625 91.082031 " fill-opacity="1" fill-rule="nonzero"/><path fill="#bcdcbc" d="M 193.890625 353.722656 C 194.515625 353.359375 191.84375 352.078125 191.007812 351.691406 C 187.792969 350.203125 182.917969 348.542969 180.644531 348.445312 C 180.28125 348.449219 179.90625 348.453125 179.792969 348.640625 C 178.988281 349.96875 192.160156 354.722656 193.890625 353.722656 " fill-opacity="1" fill-rule="nonzero"/><path fill="#bcdcbc" d="M 159.125 120.304688 C 153.429688 121.574219 150.617188 130.304688 154.492188 134.675781 C 158.261719 138.929688 164.863281 134.984375 165.359375 128.183594 C 165.695312 123.542969 162.726562 119.789062 159.125 120.304688 " fill-opacity="1" fill-rule="nonzero"/><path fill="#bcdcbc" d="M 148.609375 105.917969 C 143.527344 106.933594 140.109375 115.25 142.980469 119.609375 C 145.8125 123.910156 151.980469 120.355469 153.136719 113.761719 C 153.917969 109.292969 151.757812 105.554688 148.609375 105.917969 " fill-opacity="1" fill-rule="nonzero"/><path fill="#bcdcbc" d="M 203.976562 338.410156 C 208.964844 339.453125 210.945312 336.945312 209.066406 334.167969 C 207.261719 331.503906 202.484375 329.453125 199.039062 329.871094 C 198.382812 329.984375 197.765625 330.089844 197.132812 330.527344 C 194.097656 332.613281 198.0625 337.179688 203.976562 338.410156 " fill-opacity="1" fill-rule="nonzero"/><path fill="#bcdcbc" d="M 94.757812 87.523438 C 94.980469 88.847656 97.625 86.675781 100.78125 82.578125 C 100.835938 82.507812 106.136719 75.609375 105.136719 74.496094 C 103.042969 73.925781 94.3125 84.882812 94.757812 87.523438 " fill-opacity="1" fill-rule="nonzero"/><path fill="#bcdcbc" d="M 205.050781 347.128906 C 207.867188 347.089844 208.382812 345.652344 206.28125 343.710938 C 204.613281 342.171875 200.664062 339.964844 196.613281 340.195312 C 196.128906 340.246094 195.242188 340.398438 194.785156 340.851562 C 192.777344 342.855469 199.875 347.195312 205.050781 347.128906 " fill-opacity="1" fill-rule="nonzero"/><path fill="#bcdcbc" d="M 141.570312 91.882812 C 137.164062 92.320312 132.902344 101.144531 135.238281 104.996094 C 137.160156 108.164062 142.476562 105.488281 144.199219 99.292969 C 145.039062 96.273438 145.03125 91.808594 141.570312 91.882812 " fill-opacity="1" fill-rule="nonzero"/><path fill="#bcdcbc" d="M 172.886719 134.910156 C 166.953125 135.976562 164.539062 145.042969 169.03125 149.386719 C 173.121094 153.339844 180.597656 149.863281 180.394531 142.460938 C 180.300781 139.070312 178.222656 134.261719 172.886719 134.910156 " fill-opacity="1" fill-rule="nonzero"/><path fill="#bcdcbc" d="M 222.242188 308.222656 C 221.402344 305.851562 218 302.367188 212.449219 303.117188 C 212.054688 303.1875 211.457031 303.328125 210.863281 303.582031 C 206.199219 305.542969 207.109375 311.414062 212.457031 313.878906 C 218.113281 316.484375 223.964844 313.105469 222.242188 308.222656 " fill-opacity="1" fill-rule="nonzero"/><path fill="#bcdcbc" d="M 84.945312 90.871094 C 87.195312 87.597656 89.953125 83.4375 90.324219 82.210938 C 90.308594 82.171875 90.289062 82.117188 90.273438 82.082031 C 88.953125 82.53125 81.023438 94.460938 81.339844 95.515625 C 81.488281 95.464844 81.882812 95.328125 84.945312 90.871094 " fill-opacity="1" fill-rule="nonzero"/><path fill="#bcdcbc" d="M 96.082031 79.003906 C 96.136719 78.9375 101.554688 72.414062 101.558594 71.183594 C 101.542969 71.164062 101.523438 71.140625 101.507812 71.121094 C 99.972656 71.050781 90.714844 82.496094 91.503906 83.492188 C 92.183594 83.546875 94.664062 80.703125 96.082031 79.003906 " fill-opacity="1" fill-rule="nonzero"/><path fill="#bcdcbc" d="M 188.136719 353.738281 C 187.78125 353.714844 187.78125 353.714844 187.6875 353.804688 C 188.523438 354.628906 200.386719 357.558594 201.484375 357.210938 C 201.339844 357.132812 201.097656 356.996094 197.742188 356.0625 C 192.914062 354.726562 189.683594 353.941406 188.136719 353.738281 " fill-opacity="1" fill-rule="nonzero"/><path fill="#bcdcbc" d="M 216.269531 199.132812 C 209.765625 200.644531 208.089844 209.40625 213.464844 213.785156 C 219.238281 218.488281 227.152344 213.828125 226.101562 206.339844 C 225.597656 202.738281 222.210938 198.121094 216.269531 199.132812 " fill-opacity="1" fill-rule="nonzero"/><path fill="#bcdcbc" d="M 227.0625 299.277344 C 227.0625 299.277344 227.066406 299.277344 227.066406 299.277344 C 227.066406 299.277344 227.070312 299.277344 227.070312 299.277344 C 227.074219 299.273438 227.074219 299.273438 227.074219 299.273438 C 227.078125 299.273438 227.078125 299.273438 227.082031 299.273438 C 227.082031 299.273438 227.085938 299.273438 227.085938 299.273438 C 227.089844 299.273438 227.089844 299.273438 227.089844 299.273438 C 227.09375 299.273438 227.09375 299.269531 227.097656 299.269531 C 233.167969 297.753906 232.214844 292.867188 232.085938 292.3125 C 231.453125 289.609375 228.386719 285.921875 222.53125 286.847656 C 220.226562 287.324219 218.988281 288.546875 218.457031 289.230469 C 215.101562 293.554688 219.761719 300.394531 227.054688 299.277344 C 227.058594 299.277344 227.058594 299.277344 227.0625 299.277344 " fill-opacity="1" fill-rule="nonzero"/><path fill="#bcdcbc" d="M 138.230469 78.167969 C 134.65625 78.414062 129.753906 86.390625 130.9375 90.023438 C 131.925781 93.046875 136.476562 90.898438 138.957031 85.113281 C 140.085938 82.46875 140.886719 78.246094 138.230469 78.167969 " fill-opacity="1" fill-rule="nonzero"/><path fill="#bcdcbc" d="M 108.992188 74.285156 C 108.949219 75.804688 111.910156 73.742188 115.332031 69.878906 C 117.089844 67.890625 120.445312 63.574219 119.589844 62.929688 C 117.390625 62.707031 109.074219 71.621094 108.992188 74.285156 " fill-opacity="1" fill-rule="nonzero"/><path fill="#bcdcbc" d="M 207.964844 353.296875 C 208.988281 352.988281 208.371094 352.066406 206.390625 350.945312 C 204.726562 350 200.683594 348.238281 197.289062 348.316406 C 197.289062 348.316406 197.285156 348.316406 197.285156 348.316406 C 197.285156 348.316406 197.28125 348.316406 197.28125 348.316406 C 197.277344 348.316406 197.277344 348.320312 197.277344 348.320312 C 197.273438 348.320312 197.273438 348.320312 197.273438 348.320312 C 197.273438 348.320312 197.273438 348.320312 197.269531 348.320312 C 197.269531 348.320312 197.269531 348.320312 197.265625 348.320312 C 196.863281 348.359375 196.1875 348.429688 195.960938 348.773438 C 194.820312 350.488281 204.804688 354.253906 207.964844 353.296875 " fill-opacity="1" fill-rule="nonzero"/><path fill="#bcdcbc" d="M 189.460938 149.417969 C 189.460938 149.417969 189.460938 149.417969 189.457031 149.417969 C 189.457031 149.417969 189.453125 149.417969 189.453125 149.417969 C 189.449219 149.417969 189.449219 149.417969 189.449219 149.417969 C 189.445312 149.421875 189.445312 149.421875 189.441406 149.421875 C 189.441406 149.421875 189.441406 149.421875 189.4375 149.421875 C 189.4375 149.421875 189.433594 149.421875 189.433594 149.421875 C 189.433594 149.421875 189.429688 149.421875 189.429688 149.421875 C 189.425781 149.421875 189.425781 149.425781 189.421875 149.425781 C 182.15625 151.382812 182.214844 160.617188 186.628906 163.996094 C 191.644531 167.832031 198.496094 163.371094 197.910156 156.652344 C 197.628906 153.414062 195.085938 148.589844 189.460938 149.417969 " fill-opacity="1" fill-rule="nonzero"/><path fill="#bcdcbc" d="M 180.144531 352.367188 L 180.609375 352.503906 C 180.265625 352.398438 179.90625 352.296875 179.574219 352.191406 L 180.144531 352.367188 " fill-opacity="1" fill-rule="nonzero"/><path fill="#bcdcbc" d="M 235.066406 241.867188 C 234.207031 237.289062 229.660156 234.261719 225.140625 235.257812 C 217.820312 237.3125 217.503906 246.050781 223 249.605469 C 228.894531 253.421875 236.335938 248.648438 235.066406 241.867188 " fill-opacity="1" fill-rule="nonzero"/><path fill="#bcdcbc" d="M 118.042969 75.996094 C 118.414062 77.8125 121.90625 75.4375 125.089844 71.199219 C 126.601562 69.191406 129.230469 64.90625 127.707031 64.496094 C 125.300781 64.285156 117.40625 72.855469 118.042969 75.996094 " fill-opacity="1" fill-rule="nonzero"/><path fill="#bcdcbc" d="M 243.515625 274.550781 C 243.113281 271.09375 239.195312 267.832031 234.207031 268.683594 C 228.453125 270.28125 226.8125 276.609375 231.230469 280.160156 C 236.828125 284.65625 244.179688 280.28125 243.515625 274.550781 " fill-opacity="1" fill-rule="nonzero"/><path fill="#bcdcbc" d="M 212.542969 357.5 C 213.023438 357.230469 210.859375 356.449219 210.183594 356.21875 C 207.425781 355.265625 203.042969 354.21875 201.160156 354.238281 C 200.886719 354.253906 200.425781 354.28125 200.421875 354.5 C 200.414062 355.589844 211.175781 358.253906 212.542969 357.5 " fill-opacity="1" fill-rule="nonzero"/><path fill="#bcdcbc" d="M 208.441406 163.6875 C 208.4375 163.6875 208.4375 163.6875 208.4375 163.6875 C 208.433594 163.6875 208.433594 163.691406 208.429688 163.691406 C 208.429688 163.691406 208.429688 163.691406 208.425781 163.691406 C 208.425781 163.691406 208.421875 163.691406 208.421875 163.691406 C 208.421875 163.691406 208.417969 163.691406 208.417969 163.691406 C 208.417969 163.695312 208.414062 163.695312 208.414062 163.695312 C 208.410156 163.695312 208.410156 163.695312 208.410156 163.695312 C 208.40625 163.695312 208.40625 163.695312 208.402344 163.695312 C 202.0625 165.539062 200.742188 174.222656 206.230469 177.992188 C 211.976562 181.941406 218.265625 176.496094 217.363281 170.332031 C 216.878906 167.027344 213.507812 162.878906 208.441406 163.6875 " fill-opacity="1" fill-rule="nonzero"/><path fill="#bcdcbc" d="M 130.59375 76.042969 C 131.210938 78.144531 134.902344 75.6875 137.519531 71.433594 C 138.734375 69.460938 140.597656 65.308594 138.613281 65.0625 C 135.363281 65.460938 129.742188 73.15625 130.59375 76.042969 " fill-opacity="1" fill-rule="nonzero"/><path fill="#bcdcbc" d="M 104.195312 71.445312 C 104.195312 71.445312 104.195312 71.445312 104.195312 71.449219 C 104.195312 71.449219 104.199219 71.449219 104.199219 71.449219 C 104.980469 71.777344 108.574219 68.160156 109.65625 67.042969 C 109.875 66.816406 115.023438 61.5 114.769531 60.582031 C 114.746094 60.570312 114.710938 60.546875 114.683594 60.539062 C 113.621094 60.363281 103.464844 69.625 104.195312 71.445312 " fill-opacity="1" fill-rule="nonzero"/><path fill="#bcdcbc" d="M 232.714844 330.074219 C 231.878906 328.273438 228.808594 326 224.605469 326.574219 C 224.011719 326.683594 223.417969 326.886719 222.972656 327.125 C 219.832031 328.808594 221.203125 332.597656 225.5 334.113281 C 230.074219 335.726562 234.253906 333.386719 232.714844 330.074219 " fill-opacity="1" fill-rule="nonzero"/><path fill="#bcdcbc" d="M 168.058594 115.335938 C 171.386719 118.941406 177.0625 115.21875 177.117188 109.390625 C 177.144531 106.582031 175.492188 102.820312 171.734375 103.253906 C 167.121094 104.113281 164.785156 111.792969 168.058594 115.335938 " fill-opacity="1" fill-rule="nonzero"/><path fill="#bcdcbc" d="M 222.472656 344.179688 C 226.390625 344.890625 228.746094 343.207031 227.144531 340.847656 C 225.75 338.789062 221.953125 337.363281 219.023438 337.792969 C 218.550781 337.882812 217.757812 338.039062 217.160156 338.511719 C 215.042969 340.195312 218.023438 343.371094 222.472656 344.179688 " fill-opacity="1" fill-rule="nonzero"/><path fill="#bcdcbc" d="M 161.417969 90.054688 C 156.777344 91.078125 154.582031 98.808594 157.160156 101.757812 C 159.539062 104.488281 164.542969 101.765625 165.277344 96.1875 C 165.707031 92.910156 164.355469 89.632812 161.417969 90.054688 " fill-opacity="1" fill-rule="nonzero"/><path fill="#bcdcbc" d="M 240.726562 317.03125 C 240.074219 315.101562 237.421875 312.507812 232.78125 313.261719 C 232.558594 313.308594 232.078125 313.4375 232.074219 313.441406 C 227.347656 314.875 227.882812 319.664062 231.800781 321.699219 C 236.570312 324.183594 242.160156 321.257812 240.726562 317.03125 " fill-opacity="1" fill-rule="nonzero"/><path fill="#bcdcbc" d="M 154.652344 77.148438 C 151.09375 77.605469 147.585938 84.863281 149.445312 87.9375 C 150.996094 90.503906 155.351562 88.289062 156.789062 83.226562 C 157.507812 80.699219 157.53125 76.996094 154.652344 77.148438 " fill-opacity="1" fill-rule="nonzero"/><path fill="#bcdcbc" d="M 185.316406 116.773438 C 179.390625 118.320312 179.070312 126.179688 182.488281 129.125 C 186.027344 132.179688 192.109375 129.125 191.824219 123.0625 C 191.632812 118.929688 188.714844 116.109375 185.316406 116.773438 " fill-opacity="1" fill-rule="nonzero"/><path fill="#bcdcbc" d="M 223.125 351.640625 C 225.355469 351.5 225.796875 350.460938 224.199219 349.121094 C 222.527344 347.714844 219.144531 346.460938 216.382812 346.796875 C 215.960938 346.863281 215.25 346.980469 214.851562 347.351562 C 213.207031 348.898438 219.007812 351.902344 223.125 351.640625 " fill-opacity="1" fill-rule="nonzero"/><path fill="#bcdcbc" d="M 225.433594 356.570312 C 226.234375 356.328125 225.804688 355.75 224.324219 355.0625 C 222.742188 354.332031 219.4375 353.300781 216.820312 353.46875 C 216.421875 353.507812 215.90625 353.609375 215.746094 353.855469 C 214.96875 355.039062 223.027344 357.296875 225.433594 356.570312 " fill-opacity="1" fill-rule="nonzero"/><path fill="#bcdcbc" d="M 133.953125 62.410156 C 134.238281 63.699219 137.144531 61.773438 139.929688 58.453125 C 142.121094 55.839844 143.730469 52.976562 142.632812 52.882812 C 140.0625 53.109375 133.488281 60.320312 133.953125 62.410156 " fill-opacity="1" fill-rule="nonzero"/><path fill="#bcdcbc" d="M 208.484375 358.03125 C 208.179688 358.027344 208.179688 358.027344 208.109375 358.089844 C 208.898438 358.589844 219.089844 359.945312 219.835938 359.648438 C 219.574219 359.582031 219.222656 359.527344 216.511719 359.113281 C 212.230469 358.460938 209.871094 358.101562 208.484375 358.03125 " fill-opacity="1" fill-rule="nonzero"/><path fill="#bcdcbc" d="M 152.082031 70.308594 C 153.328125 67.535156 153.453125 64.539062 151.636719 64.675781 C 148.421875 65.265625 144.410156 71.976562 145.675781 74.652344 C 146.699219 76.820312 150.230469 74.425781 152.082031 70.308594 " fill-opacity="1" fill-rule="nonzero"/><path fill="#bcdcbc" d="M 118.835938 59.558594 C 118.675781 60.445312 121.0625 58.898438 124.378906 55.96875 C 124.4375 55.917969 129.917969 51.027344 129.523438 50.378906 C 128.050781 50.109375 119.164062 57.746094 118.835938 59.558594 " fill-opacity="1" fill-rule="nonzero"/><path fill="#bcdcbc" d="M 238.117188 213.933594 C 231.207031 216.015625 231.488281 224.003906 235.566406 227.285156 C 240.335938 231.121094 248.203125 227.597656 247.183594 220.425781 C 246.527344 215.78125 242.460938 212.867188 238.117188 213.933594 " fill-opacity="1" fill-rule="nonzero"/><path fill="#bcdcbc" d="M 134.75 52.035156 C 132.625 51.996094 124.546875 59.675781 124.695312 61.589844 C 124.773438 62.589844 127.15625 61.332031 130.863281 57.566406 C 131.066406 57.363281 135.789062 52.550781 134.75 52.035156 " fill-opacity="1" fill-rule="nonzero"/><path fill="#bcdcbc" d="M 246.957031 249.136719 C 240.742188 250.714844 240.007812 258.058594 244.402344 261.167969 C 249.316406 264.648438 256.425781 260.507812 255.585938 254.652344 C 255.195312 251.929688 252.507812 248.027344 246.957031 249.136719 " fill-opacity="1" fill-rule="nonzero"/><path fill="#bcdcbc" d="M 101.726562 67.152344 C 101.742188 67.121094 101.742188 67.074219 101.742188 67.042969 C 100.746094 67.488281 92.703125 77 92.6875 77.753906 C 92.914062 77.613281 93.511719 76.976562 96.148438 73.910156 C 100.460938 68.882812 101.382812 67.726562 101.726562 67.152344 " fill-opacity="1" fill-rule="nonzero"/><path fill="#bcdcbc" d="M 229.148438 178.050781 C 222.183594 180.171875 222.761719 188.476562 227.25 191.457031 C 232.441406 194.910156 238.910156 190.515625 237.898438 184.226562 C 237.199219 179.890625 233.195312 177.0625 229.148438 178.050781 " fill-opacity="1" fill-rule="nonzero"/><path fill="#bcdcbc" d="M 201.765625 130.226562 C 195.949219 131.890625 195.453125 139.597656 199.699219 142.675781 C 204.140625 145.894531 209.949219 141.789062 209.117188 136.015625 C 208.734375 133.371094 206.402344 129.457031 201.765625 130.226562 " fill-opacity="1" fill-rule="nonzero"/><path fill="#bcdcbc" d="M 250.851562 302.078125 C 250.316406 299.449219 247.398438 297.082031 243.039062 297.878906 C 237.679688 299.125 237.109375 304.449219 240.785156 306.984375 C 245.234375 310.050781 251.816406 306.839844 250.851562 302.078125 " fill-opacity="1" fill-rule="nonzero"/><path fill="#bcdcbc" d="M 107.574219 63.46875 C 107.628906 63.417969 112.9375 58.304688 113.285156 57.410156 C 113.285156 57.410156 113.285156 57.410156 113.269531 57.359375 C 112.128906 57.316406 103.085938 66.128906 103.296875 67.082031 C 103.699219 67.117188 106.152344 64.832031 107.574219 63.46875 " fill-opacity="1" fill-rule="nonzero"/><path fill="#bcdcbc" d="M 219.105469 155.820312 C 224.101562 159.089844 229.296875 154.390625 228.359375 149.175781 C 227.867188 146.460938 225.066406 142.839844 220.609375 143.683594 C 215.761719 144.914062 214.03125 152.5 219.105469 155.820312 " fill-opacity="1" fill-rule="nonzero"/><path fill="#bcdcbc" d="M 262.4375 284.980469 C 262.074219 282.242188 259.109375 279.804688 254.945312 280.636719 C 250.449219 281.769531 248.152344 287.207031 252.1875 290.226562 C 256.828125 293.699219 263.054688 289.664062 262.4375 284.980469 " fill-opacity="1" fill-rule="nonzero"/><path fill="#bcdcbc" d="M 220.59375 357.878906 C 220.152344 357.917969 220.027344 357.957031 219.988281 358.070312 C 220.402344 358.890625 228.625 359.785156 229.675781 359.382812 C 229.679688 359.363281 229.683594 359.332031 229.691406 359.3125 C 229.605469 359.25 229.378906 359.082031 227.367188 358.6875 C 226.621094 358.535156 222.773438 357.800781 220.59375 357.878906 " fill-opacity="1" fill-rule="nonzero"/><path fill="#bcdcbc" d="M 145.632812 61.601562 C 145.917969 63.269531 148.722656 61.78125 151.199219 57.972656 C 152.777344 55.550781 153.664062 52.964844 152.347656 53.007812 C 149.964844 53.367188 145.257812 59.394531 145.632812 61.601562 " fill-opacity="1" fill-rule="nonzero"/><path fill="#bcdcbc" d="M 121.117188 53.375 C 123.164062 51.726562 126.613281 48.859375 126.769531 48.21875 C 126.144531 47.65625 116.746094 55.242188 116.617188 56.421875 C 116.695312 56.5 116.941406 56.75 121.117188 53.375 " fill-opacity="1" fill-rule="nonzero"/><path fill="#bcdcbc" d="M 180.554688 96.757812 C 183.09375 99.195312 187.558594 96.773438 187.425781 91.945312 C 187.375 90.0625 186.378906 86.628906 182.972656 87.117188 C 179.070312 87.941406 178.007812 94.3125 180.554688 96.757812 " fill-opacity="1" fill-rule="nonzero"/><path fill="#bcdcbc" d="M 243 334.128906 C 242.746094 334.1875 242.410156 334.269531 242.167969 334.359375 C 239.113281 335.453125 239.792969 338.265625 242.507812 339.492188 C 245.617188 340.894531 250.035156 339.425781 249.023438 336.640625 C 248.539062 335.3125 246.539062 333.550781 243 334.128906 " fill-opacity="1" fill-rule="nonzero"/><path fill="#bcdcbc" d="M 176.03125 79.898438 C 176.308594 77.226562 175.207031 74.695312 172.882812 75.082031 C 169.292969 75.957031 167.769531 81.921875 169.808594 84.253906 C 171.722656 86.445312 175.574219 84.324219 176.03125 79.898438 " fill-opacity="1" fill-rule="nonzero"/><path fill="#bcdcbc" d="M 238.957031 348.453125 C 241.859375 348.988281 244.433594 347.902344 243.1875 346.019531 C 242.175781 344.484375 239.535156 343.605469 237.179688 344.015625 C 236.796875 344.097656 236.160156 344.234375 235.667969 344.585938 C 234.039062 345.742188 235.851562 347.875 238.957031 348.453125 " fill-opacity="1" fill-rule="nonzero"/><path fill="#bcdcbc" d="M 257.324219 324.71875 C 256.960938 323.226562 255.066406 321.265625 251.335938 321.960938 C 246.917969 323.136719 247.144531 326.78125 249.78125 328.3125 C 253.265625 330.335938 258.128906 328.015625 257.324219 324.71875 " fill-opacity="1" fill-rule="nonzero"/><path fill="#bcdcbc" d="M 250.96875 192.242188 C 244.917969 193.925781 245.203125 201.390625 248.992188 204.207031 C 253.28125 207.398438 260.15625 203.808594 258.949219 197.523438 C 258.496094 195.179688 256.25 191.0625 250.96875 192.242188 " fill-opacity="1" fill-rule="nonzero"/><path fill="#bcdcbc" d="M 150.058594 41.871094 C 148.230469 41.972656 141.132812 48 141.121094 49.460938 C 141.117188 50.191406 143.039062 49.230469 146.261719 46.34375 C 146.308594 46.300781 150.898438 42.179688 150.058594 41.871094 " fill-opacity="1" fill-rule="nonzero"/><path fill="#bcdcbc" d="M 135.039062 48.347656 C 134.980469 48.957031 137.03125 47.765625 140.144531 45.371094 C 140.640625 44.988281 145.007812 41.617188 145.0625 40.941406 C 145.050781 40.929688 145.03125 40.910156 145.019531 40.898438 C 143.640625 40.808594 135.152344 47.148438 135.039062 48.347656 " fill-opacity="1" fill-rule="nonzero"/><path fill="#bcdcbc" d="M 257.816406 239.789062 C 261.945312 242.8125 268.792969 239.472656 267.941406 233.457031 C 267.609375 231.125 265.550781 227.035156 260.132812 228.25 C 253.546875 230.398438 254.550781 237.394531 257.816406 239.789062 " fill-opacity="1" fill-rule="nonzero"/><path fill="#bcdcbc" d="M 194.601562 109.300781 C 197.9375 112.042969 202.488281 108.769531 201.871094 104.070312 C 201.59375 101.949219 199.855469 98.796875 196.382812 99.378906 C 192.449219 100.289062 191.316406 106.597656 194.601562 109.300781 " fill-opacity="1" fill-rule="nonzero"/><path fill="#bcdcbc" d="M 274.882812 265.867188 C 274.464844 262.855469 271.148438 260.890625 267.929688 261.75 C 263.148438 263.300781 261.609375 268.765625 265.183594 271.492188 C 269.550781 274.824219 275.53125 270.507812 274.882812 265.867188 " fill-opacity="1" fill-rule="nonzero"/><path fill="#bcdcbc" d="M 239.542969 354.589844 C 240.929688 354.351562 241.117188 353.632812 240 352.835938 C 239.085938 352.179688 236.714844 351.253906 234.261719 351.550781 C 233.460938 351.675781 233.125 351.921875 232.980469 352.105469 C 232.023438 353.34375 236.621094 355.082031 239.542969 354.589844 " fill-opacity="1" fill-rule="nonzero"/><path fill="#bcdcbc" d="M 162.539062 71.785156 C 163.796875 73.953125 167.058594 71.808594 168.078125 68.144531 C 168.757812 65.710938 168.230469 63.164062 166.386719 63.410156 C 163.585938 64.058594 161.140625 69.378906 162.539062 71.785156 " fill-opacity="1" fill-rule="nonzero"/><path fill="#bcdcbc" d="M 261.835938 307.609375 C 258.152344 308.707031 256.714844 312.335938 259.132812 314.421875 C 262.542969 317.359375 267.992188 314.472656 267.742188 310.855469 C 267.582031 308.53125 264.65625 306.925781 261.835938 307.609375 " fill-opacity="1" fill-rule="nonzero"/><path fill="#bcdcbc" d="M 215.378906 122.554688 C 215.382812 122.554688 215.382812 122.554688 215.382812 122.554688 C 215.386719 122.554688 215.386719 122.554688 215.386719 122.554688 C 215.386719 122.554688 215.390625 122.554688 215.390625 122.550781 C 215.390625 122.554688 215.390625 122.550781 215.390625 122.550781 C 215.390625 122.550781 215.390625 122.550781 215.394531 122.550781 C 215.398438 122.550781 215.398438 122.550781 215.398438 122.550781 C 218.535156 121.53125 219.238281 118.371094 218.945312 116.496094 C 218.464844 113.398438 215.433594 111.09375 212.703125 111.753906 C 212.152344 111.929688 211.003906 112.292969 210.050781 113.785156 C 207.394531 117.925781 210.734375 123.417969 215.378906 122.554688 " fill-opacity="1" fill-rule="nonzero"/><path fill="#bcdcbc" d="M 239.621094 168.179688 C 244.445312 171.8125 249.796875 167.398438 248.847656 162.242188 C 248.28125 159.167969 245.230469 156.347656 241.296875 157.152344 C 236.53125 158.730469 235.5625 165.117188 239.621094 168.179688 " fill-opacity="1" fill-rule="nonzero"/><path fill="#bcdcbc" d="M 131.808594 46.359375 C 132.242188 46.496094 135.257812 44.484375 136.535156 43.613281 C 136.585938 43.574219 141.867188 39.953125 142.011719 39.390625 C 140.992188 39.140625 131.742188 45.457031 131.808594 46.359375 " fill-opacity="1" fill-rule="nonzero"/><path fill="#bcdcbc" d="M 163.679688 52.324219 C 161.570312 52.789062 158.339844 57.675781 159.167969 59.859375 C 159.902344 61.792969 162.796875 59.292969 164.058594 56.261719 C 164.871094 54.304688 164.882812 52.203125 163.679688 52.324219 " fill-opacity="1" fill-rule="nonzero"/><path fill="#bcdcbc" d="M 156.832031 42.199219 C 155.367188 42.238281 149.507812 47.753906 149.542969 49.542969 C 149.566406 50.683594 152.183594 48.757812 154.339844 46.398438 C 155.617188 45 157.65625 42.335938 156.832031 42.199219 " fill-opacity="1" fill-rule="nonzero"/><path fill="#bcdcbc" d="M 240.007812 357.375 C 238.570312 356.90625 235.902344 356.511719 234.480469 356.6875 C 234.21875 356.726562 233.78125 356.796875 233.714844 357.007812 C 233.410156 357.972656 239.78125 358.714844 240.953125 358.179688 C 241.421875 357.964844 240.769531 357.625 240.007812 357.375 " fill-opacity="1" fill-rule="nonzero"/><path fill="#bcdcbc" d="M 114.925781 53.664062 C 114.9375 53.644531 114.953125 53.613281 114.964844 53.589844 C 114.355469 53.859375 106.828125 60.753906 106.4375 61.601562 C 106.574219 61.5 106.574219 61.5 109.683594 58.609375 C 113.660156 54.90625 114.605469 54.027344 114.925781 53.664062 " fill-opacity="1" fill-rule="nonzero"/><path fill="#bcdcbc" d="M 121.164062 49.890625 C 126.058594 46.160156 126.425781 45.726562 126.695312 45.414062 C 126.175781 45.132812 117.761719 51.566406 117.695312 52.300781 C 117.777344 52.308594 117.972656 52.324219 121.164062 49.890625 " fill-opacity="1" fill-rule="nonzero"/><path fill="#bcdcbc" d="M 152.027344 37.863281 C 152.234375 38.117188 153.527344 37.410156 156.636719 35.328125 C 157.296875 34.886719 160.589844 32.667969 160.742188 32.253906 C 160.734375 32.242188 160.722656 32.234375 160.710938 32.226562 C 160.09375 32.144531 152.148438 36.800781 152.027344 37.863281 " fill-opacity="1" fill-rule="nonzero"/><path fill="#bcdcbc" d="M 279.449219 294.882812 C 279.453125 294.832031 279.207031 290.109375 273.980469 291.515625 C 267.960938 293.355469 270.570312 298.167969 271.136719 298.75 C 273.082031 300.742188 279.179688 299.683594 279.449219 294.882812 " fill-opacity="1" fill-rule="nonzero"/><path fill="#bcdcbc" d="M 164.683594 42.136719 C 163.082031 42.453125 159.46875 46.957031 159.660156 48.390625 C 159.808594 49.480469 161.871094 48.296875 163.601562 45.753906 C 164.019531 45.136719 166.039062 42.0625 164.683594 42.136719 " fill-opacity="1" fill-rule="nonzero"/><path fill="#bcdcbc" d="M 242.949219 359.464844 C 240.269531 359.347656 239.066406 359.332031 238.183594 359.40625 C 237.730469 359.449219 237.714844 359.480469 237.6875 359.53125 C 238.285156 359.875 243.902344 359.789062 244.714844 359.585938 C 244.664062 359.550781 244.640625 359.535156 242.949219 359.464844 " fill-opacity="1" fill-rule="nonzero"/><path fill="#bcdcbc" d="M 279.050781 250.835938 C 279.855469 251.4375 282.0625 252.621094 285.207031 250.550781 C 286.238281 249.871094 287.902344 248.285156 287.476562 245.285156 C 286.917969 241.359375 283.757812 240.828125 281.222656 241.5625 C 276.109375 243.359375 276.636719 249.027344 279.050781 250.835938 " fill-opacity="1" fill-rule="nonzero"/><path fill="#bcdcbc" d="M 271.136719 216.722656 C 273.640625 218.796875 280.628906 217.613281 279.929688 210.890625 C 279.921875 210.828125 279.027344 204.796875 273.15625 206.292969 C 266.886719 208.179688 269.035156 214.980469 271.136719 216.722656 " fill-opacity="1" fill-rule="nonzero"/><path fill="#bcdcbc" d="M 261.875 180.679688 C 262.359375 181.007812 264.914062 182.546875 267.824219 180.53125 C 269.097656 179.648438 270.488281 177.996094 269.871094 175.140625 C 269.070312 171.433594 266.414062 169.75 262.941406 170.746094 C 257.84375 172.574219 258.992188 178.710938 261.875 180.679688 " fill-opacity="1" fill-rule="nonzero"/><path fill="#bcdcbc" d="M 230.824219 133.855469 C 233.726562 135.550781 238.929688 133.980469 237.808594 128.765625 C 237.226562 126.0625 234.933594 123.695312 231.675781 124.398438 C 226.554688 125.835938 227.890625 132.144531 230.824219 133.855469 " fill-opacity="1" fill-rule="nonzero"/><path fill="#bcdcbc" d="M 140.632812 37.617188 C 140.632812 37.601562 140.617188 37.589844 140.609375 37.578125 C 139.769531 37.601562 132.535156 42.015625 131.53125 43.328125 C 131.96875 43.265625 133.003906 42.683594 135.640625 41.015625 C 139.378906 38.652344 140.5 37.886719 140.632812 37.617188 " fill-opacity="1" fill-rule="nonzero"/><path fill="#bcdcbc" d="M 252.734375 348.664062 C 252.453125 348.730469 251.980469 348.839844 251.640625 349.078125 C 250.792969 349.671875 251.085938 350.90625 253.222656 351.398438 C 255.046875 351.816406 257.546875 351.144531 256.699219 349.769531 C 256.183594 348.929688 254.753906 348.261719 252.734375 348.664062 " fill-opacity="1" fill-rule="nonzero"/><path fill="#bcdcbc" d="M 157.445312 38.464844 C 158.128906 38.21875 159.066406 37.742188 161.269531 35.980469 C 163.070312 34.539062 165.128906 32.800781 164.710938 32.699219 C 164.710938 32.699219 164.707031 32.699219 164.703125 32.699219 C 163.800781 32.75 156.679688 37.722656 157.445312 38.464844 " fill-opacity="1" fill-rule="nonzero"/><path fill="#bcdcbc" d="M 148.628906 36.765625 C 149.386719 36.558594 150.609375 35.925781 153.292969 34.355469 C 157.816406 31.703125 157.871094 31.550781 157.921875 31.40625 L 157.921875 31.402344 C 157.257812 31.308594 149.15625 35.714844 148.628906 36.765625 " fill-opacity="1" fill-rule="nonzero"/><path fill="#bcdcbc" d="M 258.84375 340.203125 C 258.703125 340.234375 258.566406 340.273438 258.429688 340.316406 C 256.621094 340.875 255.675781 342.722656 257.972656 343.847656 C 260 344.839844 263.417969 343.644531 262.796875 341.707031 C 262.679688 341.351562 261.949219 339.59375 258.84375 340.203125 " fill-opacity="1" fill-rule="nonzero"/><path fill="#bcdcbc" d="M 180.609375 67.847656 C 181.609375 69.140625 184.617188 68.734375 184.96875 64.65625 C 184.96875 64.621094 184.949219 61.019531 182.558594 61.355469 C 179.832031 61.941406 179.46875 66.375 180.609375 67.847656 " fill-opacity="1" fill-rule="nonzero"/><path fill="#bcdcbc" d="M 191.179688 79.109375 C 191.195312 79.121094 192.726562 80.390625 194.167969 79.375 C 194.683594 79.015625 196.058594 78.046875 195.90625 75.78125 C 195.894531 75.609375 195.589844 71.578125 192.464844 72.109375 C 189.40625 72.828125 189.332031 77.546875 191.179688 79.109375 " fill-opacity="1" fill-rule="nonzero"/><path fill="#bcdcbc" d="M 267.398438 329.441406 C 264.359375 330.296875 264.226562 332.679688 265.75 333.78125 C 267.460938 335.019531 271.667969 333.898438 271.320312 331.214844 C 271.105469 329.578125 269.605469 328.898438 267.398438 329.441406 " fill-opacity="1" fill-rule="nonzero"/><path fill="#bcdcbc" d="M 251.546875 145.679688 C 253.886719 147.171875 259.089844 146.179688 258.195312 140.859375 C 258.046875 139.984375 256.394531 135.808594 252.105469 137.046875 C 247.164062 138.746094 249.5 144.378906 251.546875 145.679688 " fill-opacity="1" fill-rule="nonzero"/><path fill="#bcdcbc" d="M 287.242188 273.460938 C 282.238281 275.144531 283.515625 279.460938 284.308594 280.46875 C 286.171875 282.84375 291.917969 281.382812 292.21875 276.636719 C 292.265625 275.90625 291.546875 272.207031 287.242188 273.460938 " fill-opacity="1" fill-rule="nonzero"/><path fill="#bcdcbc" d="M 124.730469 45.425781 C 128.707031 42.503906 128.707031 42.503906 128.949219 42.289062 C 128.972656 42.265625 129.003906 42.234375 129.019531 42.203125 C 128.382812 42.472656 122.664062 46.734375 122.21875 47.269531 C 123.105469 46.726562 123.894531 46.042969 124.730469 45.425781 " fill-opacity="1" fill-rule="nonzero"/><path fill="#bcdcbc" d="M 156.136719 30.386719 C 155.832031 30.21875 148.558594 33.773438 147.699219 34.71875 C 147.933594 34.789062 149.046875 34.242188 151.625 32.902344 C 155.230469 31.023438 156.03125 30.578125 156.136719 30.386719 " fill-opacity="1" fill-rule="nonzero"/><path fill="#bcdcbc" d="M 252.597656 356.199219 C 253.800781 356.035156 254.039062 355.71875 253.347656 355.21875 C 253.332031 355.207031 251.824219 354.269531 249.660156 354.652344 C 249.402344 354.703125 248.863281 354.8125 248.691406 355.039062 C 248.28125 355.59375 250.480469 356.5 252.597656 356.199219 " fill-opacity="1" fill-rule="nonzero"/><path fill="#bcdcbc" d="M 177.5 54.140625 C 177.761719 52.691406 177.761719 51 176.277344 51.175781 C 174.015625 51.605469 173.121094 55.914062 173.941406 56.976562 C 174.714844 57.972656 176.9375 57.253906 177.5 54.140625 " fill-opacity="1" fill-rule="nonzero"/><path fill="#bcdcbc" d="M 281.925781 318.398438 C 281.886719 317.320312 281.363281 315.621094 278.28125 316.367188 C 273.777344 317.75 275.625 320.878906 276.035156 321.25 C 277.535156 322.605469 282.023438 321.355469 281.925781 318.398438 " fill-opacity="1" fill-rule="nonzero"/><path fill="#bcdcbc" d="M 167.550781 35.582031 C 167.636719 35.492188 167.753906 35.375 167.839844 35.28125 C 169.914062 33.136719 169.789062 32.894531 169.515625 32.898438 C 168.445312 33.066406 164.320312 36.886719 164.257812 37.761719 C 164.230469 38.15625 165.019531 38.160156 167.550781 35.582031 " fill-opacity="1" fill-rule="nonzero"/><path fill="#bcdcbc" d="M 205.054688 90.445312 C 207 91.730469 210.695312 90.511719 209.890625 86.636719 C 209.472656 84.617188 208.15625 82.671875 205.71875 83.269531 C 202.003906 84.378906 203.289062 89.277344 205.054688 90.445312 " fill-opacity="1" fill-rule="nonzero"/><path fill="#bcdcbc" d="M 221.734375 101.617188 C 224.0625 102.980469 227.601562 101.292969 226.535156 97.710938 C 226.101562 96.261719 224.941406 93.921875 222.003906 94.59375 C 218.210938 95.644531 219.832031 100.5 221.734375 101.617188 " fill-opacity="1" fill-rule="nonzero"/><path fill="#bcdcbc" d="M 283.910156 192.265625 C 286 194.175781 291.339844 193.546875 290.878906 187.539062 C 290.75 185.84375 288.695312 184.464844 288.671875 184.453125 C 287.359375 183.632812 286.117188 183.972656 285.449219 184.15625 C 280.847656 185.667969 282.148438 190.652344 283.910156 192.265625 " fill-opacity="1" fill-rule="nonzero"/><path fill="#bcdcbc" d="M 249.722656 358.066406 C 249.539062 358.097656 249.15625 358.164062 249.167969 358.261719 C 249.179688 358.398438 250.058594 358.554688 251.449219 358.5625 C 252.132812 358.570312 253.738281 358.472656 253.8125 358.296875 C 253.769531 358.253906 253.695312 358.214844 253.15625 358.128906 C 253.140625 358.125 251.207031 357.84375 249.722656 358.066406 " fill-opacity="1" fill-rule="nonzero"/><path fill="#bcdcbc" d="M 170.972656 46.347656 C 171.066406 46.613281 171.375 47.15625 172.214844 46.535156 C 172.683594 46.191406 173.371094 45.570312 173.941406 44.148438 C 174.351562 43.132812 174.882812 41.441406 173.828125 41.519531 C 172.421875 41.746094 170.574219 45.222656 170.972656 46.347656 " fill-opacity="1" fill-rule="nonzero"/><path fill="#bcdcbc" d="M 293 228.160156 C 294.152344 228.964844 296.441406 229.003906 297.246094 228.445312 C 297.996094 227.917969 300.28125 226.324219 299.8125 223.410156 C 299.4375 221.0625 297.707031 219.125 294.6875 220.09375 C 289.914062 221.847656 291.289062 226.964844 293 228.160156 " fill-opacity="1" fill-rule="nonzero"/><path fill="#bcdcbc" d="M 136.980469 38.003906 C 137.019531 37.984375 140.78125 35.789062 141.199219 35.390625 C 141.199219 35.382812 141.199219 35.367188 141.199219 35.351562 C 140.582031 35.460938 134.894531 38.753906 134.140625 39.542969 C 134.140625 39.554688 134.144531 39.570312 134.144531 39.578125 C 134.382812 39.511719 135.074219 39.117188 136.980469 38.003906 " fill-opacity="1" fill-rule="nonzero"/><path fill="#bcdcbc" d="M 301.125 253.953125 C 297.574219 255.121094 297.246094 258.789062 298.925781 260.46875 C 300.789062 262.339844 305.230469 260.34375 305.167969 256.902344 C 305.15625 256.222656 304.90625 252.878906 301.125 253.953125 " fill-opacity="1" fill-rule="nonzero"/><path fill="#bcdcbc" d="M 294.011719 303.300781 C 294.019531 302.417969 293.71875 300.449219 290.769531 301.226562 C 287.324219 302.265625 287.410156 305.195312 288.371094 306.203125 C 289.835938 307.746094 293.988281 306.058594 294.011719 303.300781 " fill-opacity="1" fill-rule="nonzero"/><path fill="#bcdcbc" d="M 273.613281 156.980469 C 276.035156 158.519531 280.21875 156.632812 279.164062 152.828125 C 278.894531 151.847656 277.726562 148.71875 274.144531 149.71875 C 270.105469 151.058594 271.617188 155.714844 273.613281 156.980469 " fill-opacity="1" fill-rule="nonzero"/><path fill="#bcdcbc" d="M 240.636719 112.484375 C 242.382812 113.59375 246.175781 112.898438 245.257812 109.039062 C 245.25 109 244.171875 105.15625 240.75 106.160156 C 236.984375 107.449219 239.292969 111.632812 240.636719 112.484375 " fill-opacity="1" fill-rule="nonzero"/><path fill="#bcdcbc" d="M 174.320312 34.933594 C 174.484375 34.714844 175.886719 32.78125 175.199219 32.78125 C 174.191406 32.992188 172.070312 35.890625 172.105469 36.53125 C 172.105469 36.542969 172.40625 37.539062 174.320312 34.933594 " fill-opacity="1" fill-rule="nonzero"/><path fill="#bcdcbc" d="M 265.316406 351.882812 C 265.207031 351.90625 265.101562 351.933594 264.996094 351.96875 C 264.035156 352.292969 264.277344 352.792969 264.742188 353.027344 C 265.503906 353.410156 267.382812 353.097656 267.113281 352.28125 C 267.109375 352.273438 266.710938 351.597656 265.316406 351.882812 " fill-opacity="1" fill-rule="nonzero"/><path fill="#bcdcbc" d="M 304.179688 284.335938 C 302.347656 285.007812 301.054688 287.285156 302.246094 288.691406 C 303.457031 290.121094 306.726562 288.789062 306.964844 286.21875 C 307.144531 284.253906 305.695312 283.859375 304.179688 284.335938 " fill-opacity="1" fill-rule="nonzero"/><path fill="#bcdcbc" d="M 261.652344 123.1875 C 263.867188 124.285156 266.351562 122.542969 265.3125 119.855469 C 264.640625 118.105469 263.089844 117.28125 261.453125 117.800781 C 258.476562 118.921875 260.042969 122.390625 261.652344 123.1875 " fill-opacity="1" fill-rule="nonzero"/><path fill="#bcdcbc" d="M 271.644531 345.054688 C 270.226562 345.414062 270 346.304688 270.464844 346.761719 C 271.28125 347.554688 273.527344 346.851562 273.472656 345.824219 C 273.449219 345.390625 273.039062 344.746094 271.644531 345.054688 " fill-opacity="1" fill-rule="nonzero"/><path fill="#bcdcbc" d="M 306.53125 203.679688 C 307.917969 204.714844 311.191406 203.53125 310.710938 200.53125 C 310.472656 199.03125 309.695312 197.398438 307.351562 198.125 C 304.300781 199.210938 305.226562 202.703125 306.53125 203.679688 " fill-opacity="1" fill-rule="nonzero"/><path fill="#bcdcbc" d="M 314.824219 233.339844 C 311.890625 234.382812 312.570312 237.585938 313.566406 238.308594 C 313.578125 238.316406 314.847656 239.171875 316.414062 238.015625 C 316.761719 237.753906 317.832031 236.96875 317.664062 235.277344 C 317.5625 234.253906 317.0625 232.640625 314.824219 233.339844 " fill-opacity="1" fill-rule="nonzero"/><path fill="#bcdcbc" d="M 280.4375 335.832031 C 278.253906 336.484375 279.105469 337.957031 279.117188 337.96875 C 279.679688 338.675781 282.089844 338.136719 282.222656 336.707031 C 282.257812 336.289062 282.164062 335.371094 280.4375 335.832031 " fill-opacity="1" fill-rule="nonzero"/><path fill="#bcdcbc" d="M 213.105469 72.558594 C 214.074219 73.113281 216.09375 72.554688 215.417969 70.449219 C 215.203125 69.777344 214.535156 68.257812 212.984375 68.671875 C 210.882812 69.355469 212.175781 72.03125 213.105469 72.558594 " fill-opacity="1" fill-rule="nonzero"/><path fill="#bcdcbc" d="M 263.570312 356.1875 C 263.386719 356.097656 262.859375 355.917969 261.941406 356.105469 C 261.792969 356.132812 261.484375 356.203125 261.429688 356.304688 C 261.289062 356.570312 262.699219 356.726562 263.492188 356.453125 C 263.742188 356.367188 263.765625 356.28125 263.570312 356.1875 " fill-opacity="1" fill-rule="nonzero"/><path fill="#bcdcbc" d="M 199.46875 62.5625 C 200.164062 63.148438 202.078125 63.085938 201.804688 60.78125 C 201.800781 60.757812 201.425781 58.503906 199.734375 58.90625 C 198.082031 59.40625 198.671875 61.882812 199.46875 62.5625 " fill-opacity="1" fill-rule="nonzero"/><path fill="#bcdcbc" d="M 184.550781 42.265625 C 184.636719 41.730469 184.742188 40.503906 183.921875 40.617188 C 182.859375 40.847656 182.613281 43.015625 183.023438 43.496094 C 183.402344 43.941406 184.328125 43.660156 184.550781 42.265625 " fill-opacity="1" fill-rule="nonzero"/><path fill="#bcdcbc" d="M 189.445312 52.898438 C 189.65625 53.078125 190.210938 53.425781 190.863281 52.835938 C 191.140625 52.585938 191.453125 52.089844 191.378906 51.148438 C 191.34375 50.695312 191.136719 49.234375 189.988281 49.480469 C 188.5 49.902344 188.792969 52.351562 189.445312 52.898438 " fill-opacity="1" fill-rule="nonzero"/><path fill="#bcdcbc" d="M 296.28125 167.886719 C 297.472656 168.59375 300.695312 168.042969 299.980469 164.746094 C 299.972656 164.714844 299.242188 161.90625 296.617188 162.710938 C 293.636719 163.777344 295.054688 167.15625 296.28125 167.886719 " fill-opacity="1" fill-rule="nonzero"/><path fill="#bcdcbc" d="M 229.722656 82.417969 C 230.867188 82.851562 231.171875 82.511719 231.554688 82.082031 C 231.746094 81.871094 232.144531 81.265625 231.707031 80.21875 C 231.226562 79.066406 230.179688 78.464844 229.15625 78.761719 C 229.105469 78.777344 229.042969 78.796875 228.992188 78.820312 C 227.636719 79.394531 228.125 81.816406 229.722656 82.417969 " fill-opacity="1" fill-rule="nonzero"/><path fill="#bcdcbc" d="M 291.605469 324.089844 C 290.082031 324.550781 289.609375 325.8125 290.039062 326.433594 C 290.441406 327.027344 291.652344 326.730469 291.664062 326.722656 C 291.675781 326.71875 292.945312 326.042969 293.128906 325.183594 C 293.214844 324.773438 293.121094 323.691406 291.605469 324.089844 " fill-opacity="1" fill-rule="nonzero"/><path fill="#bcdcbc" d="M 304.273438 310.273438 C 302.71875 310.824219 302.828125 312.144531 303.035156 312.425781 C 303.46875 313.003906 305.21875 312.464844 305.488281 311.226562 C 305.539062 310.984375 305.722656 309.8125 304.273438 310.273438 " fill-opacity="1" fill-rule="nonzero"/><g clip-path="url(#a11b33d0bd)"><path fill="#bcdcbc" d="M 318.332031 265.835938 C 316.753906 266.398438 316.429688 268.28125 317.132812 269.058594 C 317.910156 269.917969 320.144531 268.816406 320.214844 267.171875 C 320.246094 266.4375 320.042969 265.28125 318.332031 265.835938 " fill-opacity="1" fill-rule="nonzero"/></g><path fill="#bcdcbc" d="M 283.707031 133.425781 C 284.835938 133.992188 286.882812 133.09375 286.140625 131.1875 C 285.855469 130.449219 285.148438 129.277344 283.652344 129.738281 C 281.453125 130.523438 282.742188 132.941406 283.707031 133.425781 " fill-opacity="1" fill-rule="nonzero"/><path fill="#bcdcbc" d="M 248.519531 91.96875 C 248.601562 92 249.324219 92.265625 249.808594 91.796875 C 250.203125 91.417969 250.296875 90.96875 250.089844 90.460938 C 250.085938 90.445312 249.445312 88.921875 248.132812 89.277344 C 248.066406 89.296875 248.003906 89.320312 247.941406 89.351562 C 246.714844 89.925781 247.601562 91.601562 248.519531 91.96875 " fill-opacity="1" fill-rule="nonzero"/></svg>